<?xml version="1.0" encoding="UTF-8"?>
<svg xmlns="http://www.w3.org/2000/svg" viewBox="0 0 512 512" width="1024" height="1024">
  <defs>
    <radialGradient id="bg" cx="50%" cy="45%" r="70%">
      <stop offset="0%" stop-color="#1b2440"></stop>
      <stop offset="60%" stop-color="#0f1a33"></stop>
      <stop offset="100%" stop-color="#0b1326"></stop>
    </radialGradient>
    <radialGradient id="shade" cx="40%" cy="40%" r="70%">
      <stop offset="0%" stop-color="rgba(0,0,0,0)"></stop>
      <stop offset="100%" stop-color="rgba(0,0,0,0.35)"></stop>
    </radialGradient>
    <linearGradient id="cool" x1="0%" y1="0%" x2="100%" y2="0%">
      <stop offset="0%" stop-color="#b7f3ff"></stop>
      <stop offset="35%" stop-color="#7be1ff"></stop>
      <stop offset="75%" stop-color="#3fd4d0"></stop>
      <stop offset="100%" stop-color="#10bfb6"></stop>
    </linearGradient>
    <linearGradient id="warm" x1="0%" y1="0%" x2="100%" y2="0%">
      <stop offset="0%" stop-color="#ff86e7"></stop>
      <stop offset="35%" stop-color="#f46ee2"></stop>
      <stop offset="70%" stop-color="#d466ff"></stop>
      <stop offset="100%" stop-color="#b26dff"></stop>
    </linearGradient>
    <linearGradient id="stripeGloss" x1="0%" y1="0%" x2="0%" y2="100%">
      <stop offset="0%" stop-color="rgba(255,255,255,0.45)"></stop>
      <stop offset="100%" stop-color="rgba(255,255,255,0)"></stop>
    </linearGradient>
    <clipPath id="moonClip">
      <circle cx="256" cy="256" r="210"></circle>
    </clipPath>
    <clipPath id="rightSlice">
      <rect x="256" y="0" width="256" height="512"></rect>
    </clipPath>
    <filter id="softShadow" x="-20%" y="-20%" width="140%" height="140%">
      <feDropShadow dx="0" dy="4" stdDeviation="8" flood-color="#000000" flood-opacity="0.35"></feDropShadow>
    </filter>
  </defs>

  <!-- background -->
  <rect width="512" height="512" fill="url(#bg)"></rect>
  <g opacity="0.6" fill="#94a3b8">
    <circle cx="70" cy="90" r="0.8"></circle>
    <circle cx="120" cy="60" r="1.2"></circle>
    <circle cx="460" cy="120" r="1.1"></circle>
    <circle cx="425" cy="60" r="0.9"></circle>
    <circle cx="380" cy="90" r="0.8"></circle>
    <circle cx="330" cy="55" r="0.7"></circle>
    <circle cx="70" cy="430" r="1.0"></circle>
    <circle cx="135" cy="380" r="0.9"></circle>
    <circle cx="430" cy="420" r="1.0"></circle>
    <circle cx="360" cy="360" r="0.7"></circle>
    <circle cx="210" cy="80" r="0.7"></circle>
    <circle cx="250" cy="430" r="0.8"></circle>
  </g>

  <!-- base moon -->
  <g filter="url(#softShadow)">
    <circle cx="256" cy="256" r="210" fill="#0b0f1a"></circle>
  </g>

  <!-- stripes -->
  <g clip-path="url(#moonClip)">
    <g clip-path="url(#rightSlice)" transform="skewX(-8) translate(10,0)">
      <g><rect x="200" y="70" width="240" height="26" rx="13" fill="url(#warm)"></rect><rect x="200" y="70" width="240" height="13" rx="13" fill="url(#stripeGloss)" opacity="0.35"></rect></g>
      <g><rect x="195" y="110" width="255" height="28" rx="14" fill="url(#cool)"></rect><rect x="195" y="110" width="255" height="14" rx="14" fill="url(#stripeGloss)" opacity="0.35"></rect></g>
      <g><rect x="190" y="152" width="250" height="30" rx="15" fill="url(#cool)"></rect><rect x="190" y="152" width="250" height="15" rx="15" fill="url(#stripeGloss)" opacity="0.35"></rect></g>
      <g><rect x="200" y="196" width="240" height="32" rx="16" fill="url(#cool)"></rect><rect x="200" y="196" width="240" height="16" rx="16" fill="url(#stripeGloss)" opacity="0.35"></rect></g>
      <g><rect x="210" y="242" width="235" height="34" rx="17" fill="url(#cool)"></rect><rect x="210" y="242" width="235" height="17" rx="17" fill="url(#stripeGloss)" opacity="0.35"></rect></g>
      <g><rect x="200" y="290" width="245" height="34" rx="17" fill="url(#warm)"></rect><rect x="200" y="290" width="245" height="17" rx="17" fill="url(#stripeGloss)" opacity="0.35"></rect></g>
      <g><rect x="190" y="338" width="240" height="32" rx="16" fill="url(#warm)"></rect><rect x="190" y="338" width="240" height="16" rx="16" fill="url(#stripeGloss)" opacity="0.35"></rect></g>
      <g><rect x="180" y="382" width="230" height="30" rx="15" fill="url(#warm)"></rect><rect x="180" y="382" width="230" height="15" rx="15" fill="url(#stripeGloss)" opacity="0.35"></rect></g>
      <g><rect x="170" y="422" width="220" height="28" rx="14" fill="url(#warm)"></rect><rect x="170" y="422" width="220" height="14" rx="14" fill="url(#stripeGloss)" opacity="0.35"></rect></g>
    </g>
    <circle cx="256" cy="256" r="210" fill="url(#shade)" opacity="0.5"></circle>
  </g>

  <!-- rim highlight -->
  <path d="M256,46 a210,210 0 0 1 0,420" fill="none" stroke="url(#cool)" stroke-width="2" opacity="0.6"></path>
</svg>
